<?xml version="1.0" ?><svg enable-background="new 0 0 512 512" id="Layer_1" version="1.1" viewBox="0 0 512 512" xml:space="preserve" xmlns="http://www.w3.org/2000/svg" xmlns:xlink="http://www.w3.org/1999/xlink"><g><g><linearGradient gradientUnits="userSpaceOnUse" id="SVGID_1_" x1="-0.0000027" x2="512" y1="256" y2="256"><stop offset="0" style="stop-color:#00AEEE"/><stop offset="1" style="stop-color:#0095DA"/></linearGradient><circle cx="256" cy="256" fill="url(#SVGID_1_)" r="256"/><linearGradient gradientUnits="userSpaceOnUse" id="SVGID_2_" x1="42.6666641" x2="469.3333435" y1="256.0005188" y2="256.0005188"><stop offset="0" style="stop-color:#0095DA"/><stop offset="1" style="stop-color:#00AEEE"/></linearGradient><path d="M256,469.3338623c-117.6314697,0-213.3333435-95.7018738-213.3333435-213.3333435    S138.3685303,42.6671982,256,42.6671982c117.6357422,0,213.3333435,95.7018661,213.3333435,213.333313    S373.6357422,469.3338623,256,469.3338623z" fill="url(#SVGID_2_)"/></g><g><polygon opacity="0.3" points="259.8346558,182.7498627 229,152.7498627 144,152.7498627 144,213.9829254 384,213.9829254     384,182.7498627   "/><path d="M277.0901184,309.5882568c12.6000061-12.6005249,12.6000061-33.1050415,0-45.7050476    c-6.3013306-6.2991943-14.5770569-9.4485474-22.8538513-9.4485474c-8.2762604,0-16.552536,3.149353-22.8538666,9.4485474    c-12.6000061,12.6000061-12.6000061,33.1045227,0,45.7050476    C243.9850616,322.1909485,264.4880066,322.1909485,277.0901184,309.5882568z" opacity="0.3"/><path d="M144,299v76.2501221h120h120V299v-75.0170746H144V299z M224.3119965,256.8122559    c16.4986725-16.4986572,43.3498688-16.4986572,59.8490753,0c15.3002625,15.3013306,16.3850708,39.4890747,3.3061218,56.0826721    l29.9109497,29.9136047l-7.0698853,7.0704041l-29.9109192-29.9136047    c-7.6474609,6.0282593-16.8976135,9.0688171-26.1610718,9.0688171c-10.8373413,0-21.6746674-4.1264038-29.9242706-12.3754883    C207.8128052,300.1594543,207.8128052,273.3114624,224.3119965,256.8122559z" opacity="0.3"/></g><g><polygon fill="#FFFFFF" points="251.834671,174.7498627 221,144.7498627 136,144.7498627 136,205.9829254 376,205.9829254     376,174.7498627   "/><path d="M269.0901184,301.5882568c12.6000061-12.6005249,12.6000061-33.1050415,0-45.7050629    c-6.3013306-6.2991943-14.5770569-9.4485321-22.8538513-9.4485321c-8.2762604,0-16.552536,3.1493378-22.8538666,9.4485321    c-12.6000061,12.6000214-12.6000061,33.104538,0,45.7050629    C235.9850616,314.1909485,256.4880066,314.1909485,269.0901184,301.5882568z" fill="#FFFFFF"/><path d="M136,291v76.2501221h120h120V291v-75.0170746H136V291z M216.3119965,248.8122711    c16.4986725-16.4986725,43.3498688-16.4986725,59.8490753,0c15.3002625,15.3013153,16.3850708,39.4890594,3.3061218,56.0826569    l29.9109497,29.9136047l-7.0698853,7.0704041l-29.9109192-29.9136047    c-7.6474609,6.0282593-16.8975983,9.0688171-26.1610718,9.0688171c-10.8373413,0-21.6746674-4.1264038-29.9242706-12.3754883    C199.8128052,292.1594543,199.8128052,265.3114624,216.3119965,248.8122711z" fill="#FFFFFF"/></g></g></svg>